<svg width="27" height="27" viewBox="0 0 27 27" fill="none" xmlns="http://www.w3.org/2000/svg">
<path d="M14.6567 2.25C15.9223 2.25337 16.5647 2.26013 17.1193 2.27588L17.3375 2.28375C17.5895 2.29275 17.8382 2.304 18.1385 2.3175C19.3355 2.37375 20.1523 2.56275 20.8689 2.84063C21.6114 3.12638 22.2369 3.51337 22.8624 4.13775C23.4347 4.69995 23.8774 5.38028 24.1595 6.13125C24.4374 6.84787 24.6264 7.66462 24.6827 8.86275C24.6962 9.162 24.7074 9.41062 24.7164 9.66375L24.7232 9.882C24.74 10.4355 24.7468 11.0779 24.749 12.3435L24.7502 13.1827V14.6565C24.7529 15.4771 24.7443 16.2977 24.7243 17.118L24.7175 17.3362C24.7085 17.5894 24.6973 17.838 24.6838 18.1372C24.6275 19.3354 24.4363 20.151 24.1595 20.8687C23.8774 21.6197 23.4347 22.3 22.8624 22.8622C22.3002 23.4345 21.6199 23.8772 20.8689 24.1594C20.1523 24.4372 19.3355 24.6262 18.1385 24.6825L17.3375 24.7162L17.1193 24.723C16.5647 24.7387 15.9223 24.7466 14.6567 24.7489L13.8174 24.75H12.3448C11.5238 24.7529 10.7029 24.7443 9.88215 24.7241L9.6639 24.7174C9.39684 24.7073 9.12983 24.6956 8.8629 24.6825C7.6659 24.6262 6.84915 24.4372 6.1314 24.1594C5.38084 23.8771 4.7009 23.4344 4.13903 22.8622C3.56634 22.3002 3.12327 21.6198 2.84078 20.8687C2.5629 20.1521 2.3739 19.3354 2.31765 18.1372L2.2839 17.3362L2.27828 17.118C2.25754 16.2977 2.24816 15.4771 2.25015 14.6565V12.3435C2.24704 11.5229 2.25529 10.7023 2.2749 9.882L2.28278 9.66375C2.29178 9.41062 2.30303 9.162 2.31653 8.86275C2.37278 7.66462 2.56178 6.849 2.83965 6.13125C3.12281 5.37997 3.56665 4.69962 4.14015 4.13775C4.7017 3.56574 5.38124 3.12308 6.1314 2.84063C6.84915 2.56275 7.66478 2.37375 8.8629 2.3175C9.16215 2.304 9.4119 2.29275 9.6639 2.28375L9.88215 2.277C10.7025 2.25701 11.5231 2.24839 12.3437 2.25112L14.6567 2.25ZM13.5002 7.875C12.0083 7.875 10.5776 8.46763 9.52268 9.52252C8.46778 10.5774 7.87515 12.0082 7.87515 13.5C7.87515 14.9918 8.46778 16.4226 9.52268 17.4775C10.5776 18.5324 12.0083 19.125 13.5002 19.125C14.992 19.125 16.4227 18.5324 17.4776 17.4775C18.5325 16.4226 19.1252 14.9918 19.1252 13.5C19.1252 12.0082 18.5325 10.5774 17.4776 9.52252C16.4227 8.46763 14.992 7.875 13.5002 7.875ZM13.5002 10.125C13.9434 10.1249 14.3822 10.2121 14.7918 10.3817C15.2013 10.5512 15.5734 10.7998 15.8868 11.1131C16.2003 11.4265 16.4489 11.7985 16.6186 12.2079C16.7883 12.6174 16.8756 13.0562 16.8757 13.4994C16.8758 13.9426 16.7886 14.3815 16.619 14.791C16.4495 15.2005 16.2009 15.5726 15.8876 15.8861C15.5743 16.1995 15.2022 16.4482 14.7928 16.6179C14.3833 16.7876 13.9445 16.8749 13.5013 16.875C12.6062 16.875 11.7477 16.5194 11.1148 15.8865C10.4819 15.2535 10.1263 14.3951 10.1263 13.5C10.1263 12.6049 10.4819 11.7464 11.1148 11.1135C11.7477 10.4806 12.6062 10.125 13.5013 10.125M19.4075 6.1875C19.0346 6.1875 18.6769 6.33566 18.4132 6.59938C18.1494 6.8631 18.0013 7.22079 18.0013 7.59375C18.0013 7.96671 18.1494 8.3244 18.4132 8.58812C18.6769 8.85184 19.0346 9 19.4075 9C19.7805 9 20.1382 8.85184 20.4019 8.58812C20.6656 8.3244 20.8138 7.96671 20.8138 7.59375C20.8138 7.22079 20.6656 6.8631 20.4019 6.59938C20.1382 6.33566 19.7805 6.1875 19.4075 6.1875Z" fill="url(#paint0_linear_91_269)"/>
<defs>
<linearGradient id="paint0_linear_91_269" x1="13.5001" y1="2.25" x2="13.5001" y2="24.7505" gradientUnits="userSpaceOnUse">
<stop stop-color="#F18C1F"/>
<stop offset="1" stop-color="#D26D00"/>
</linearGradient>
</defs>
</svg>
