<svg width="62" height="62" viewBox="0 0 62 62" fill="none" xmlns="http://www.w3.org/2000/svg">
<path d="M49.6774 39.4217L43.1157 38.6725C42.3442 38.5819 41.5621 38.6673 40.8283 38.9223C40.0945 39.1774 39.4281 39.5954 38.879 40.145L34.1257 44.8983C26.7926 41.1678 20.832 35.2072 17.1015 27.8742L21.8807 23.095C22.9915 21.9842 23.534 20.4342 23.3532 18.8583L22.604 12.3483C22.4581 11.0879 21.8535 9.92522 20.9054 9.08194C19.9573 8.23866 18.732 7.77375 17.4632 7.77582H12.994C10.0749 7.77582 7.64653 10.2042 7.82736 13.1233C9.19653 35.185 26.8407 52.8033 48.8765 54.1725C51.7957 54.3533 54.224 51.925 54.224 49.0058V44.5367C54.2499 41.9275 52.2865 39.7317 49.6774 39.4217Z" fill="#DE7B11"/>
</svg>
