<svg width="38" height="38" viewBox="0 0 38 38" fill="none" xmlns="http://www.w3.org/2000/svg">
<path fill-rule="evenodd" clip-rule="evenodd" d="M31.6667 20.5833V28.5C31.6667 29.7598 31.1662 30.968 30.2754 31.8587C29.3846 32.7495 28.1764 33.25 26.9167 33.25H20.5833V20.5833H31.6667ZM17.4167 20.5833V33.25H11.0833C9.82355 33.25 8.61537 32.7495 7.72458 31.8587C6.83378 30.968 6.33333 29.7598 6.33333 28.5V20.5833H17.4167ZM14.25 3.16666C15.1485 3.16661 16.0368 3.35774 16.8557 3.72737C17.6747 4.097 18.4056 4.63665 19 5.31049C19.5944 4.63665 20.3253 4.097 21.1443 3.72737C21.9632 3.35774 22.8515 3.16661 23.75 3.16666H24.5417C25.1716 3.16666 25.7756 3.41688 26.221 3.86228C26.6664 4.30768 26.9167 4.91177 26.9167 5.54166V6.33332C26.9167 7.48757 26.6079 8.56899 26.0696 9.49999H30.0833C30.9232 9.49999 31.7286 9.83362 32.3225 10.4275C32.9164 11.0214 33.25 11.8268 33.25 12.6667V15.8333C33.25 16.4097 33.0964 16.9512 32.8257 17.4167H20.5833V12.6667C20.5833 12.2467 20.4165 11.844 20.1196 11.5471C19.8227 11.2501 19.4199 11.0833 19 11.0833C18.5801 11.0833 18.1773 11.2501 17.8804 11.5471C17.5835 11.844 17.4167 12.2467 17.4167 12.6667V17.4167H5.17433C4.89637 16.9353 4.75002 16.3892 4.75 15.8333V12.6667C4.75 11.8268 5.08363 11.0214 5.6775 10.4275C6.27136 9.83362 7.07681 9.49999 7.91667 9.49999H11.9304C11.375 8.53706 11.0829 7.44493 11.0833 6.33332V5.54166C11.0833 4.91177 11.3336 4.30768 11.779 3.86228C12.2244 3.41688 12.8284 3.16666 13.4583 3.16666H14.25ZM14.25 6.33332C14.25 7.17318 14.5836 7.97863 15.1775 8.57249C15.7714 9.16636 16.5768 9.49999 17.4167 9.49999C17.4167 8.66014 17.083 7.85468 16.4892 7.26082C15.8953 6.66695 15.0899 6.33332 14.25 6.33332ZM23.75 6.33332C22.9101 6.33332 22.1047 6.66695 21.5108 7.26082C20.917 7.85468 20.5833 8.66014 20.5833 9.49999C21.4232 9.49999 22.2286 9.16636 22.8225 8.57249C23.4164 7.97863 23.75 7.17318 23.75 6.33332Z" fill="white"/>
</svg>
