<svg width="46" height="46" viewBox="0 0 46 46" fill="none" xmlns="http://www.w3.org/2000/svg">
<path d="M22.9999 3.8335C19.2091 3.8335 15.5034 4.9576 12.3515 7.06366C9.19956 9.16972 6.74292 12.1631 5.29224 15.6654C3.84156 19.1676 3.46199 23.0214 4.20154 26.7394C4.94109 30.4574 6.76654 33.8725 9.44705 36.553C12.1276 39.2335 15.5427 41.059 19.2607 41.7985C22.9787 42.5381 26.8324 42.1585 30.3347 40.7079C33.8369 39.2572 36.8304 36.8005 38.9364 33.6486C41.0425 30.4966 42.1666 26.791 42.1666 23.0002C42.1615 17.9184 40.1405 13.0462 36.5472 9.45289C32.9539 5.85954 28.0817 3.83857 22.9999 3.8335ZM34.383 18.6167V19.8549C34.383 19.9497 34.3641 20.0435 34.3273 20.1308C34.2904 20.2181 34.2365 20.2972 34.1686 20.3633C34.1007 20.4294 34.0202 20.4812 33.932 20.5157C33.8437 20.5502 33.7494 20.5666 33.6547 20.5641C31.631 20.4211 29.6949 19.6822 28.0906 18.4404V27.5024C28.0901 28.5053 27.8899 29.4982 27.5016 30.4229C27.1133 31.3476 26.5447 32.1857 25.8289 32.8882C25.1073 33.6092 24.2491 34.1789 23.3045 34.5639C22.36 34.949 21.3481 35.1417 20.3281 35.1307C18.277 35.1278 16.3084 34.323 14.8426 32.8882C13.9099 31.9479 13.2381 30.781 12.8933 29.5023C12.5485 28.2235 12.5426 26.8771 12.8761 25.5953C13.1808 24.3648 13.7961 23.234 14.6643 22.3121C15.3118 21.5207 16.128 20.884 17.0533 20.4486C17.9785 20.0131 18.9893 19.79 20.0118 19.7955H21.5835V23.0596C21.5842 23.1544 21.5647 23.2482 21.5262 23.3349C21.4878 23.4215 21.4313 23.499 21.3606 23.5621C21.2899 23.6252 21.2065 23.6726 21.116 23.7009C21.0256 23.7293 20.9301 23.738 20.836 23.7266C19.9235 23.4525 18.9401 23.5434 18.0933 23.9802C17.2465 24.4169 16.6024 25.1654 16.2967 26.0679C15.991 26.9703 16.0476 27.9562 16.4546 28.8177C16.8616 29.6792 17.5873 30.3491 18.4785 30.686C18.996 30.9831 19.5748 31.1575 20.169 31.1977C20.629 31.2169 21.089 31.1594 21.526 31.0214C22.2555 30.7753 22.8901 30.3077 23.3412 29.6837C23.7923 29.0598 24.0375 28.3107 24.0426 27.5407V11.0287C24.0426 10.846 24.115 10.6708 24.244 10.5414C24.373 10.4121 24.548 10.3392 24.7307 10.3387H27.4428C27.619 10.3389 27.7884 10.4065 27.9164 10.5277C28.0443 10.6489 28.1211 10.8144 28.1308 10.9903C28.2297 11.836 28.4983 12.653 28.9205 13.3924C29.3427 14.1318 29.9099 14.7783 30.588 15.2932C31.5044 15.9811 32.5927 16.4029 33.7333 16.5122C33.9041 16.5269 34.0638 16.6029 34.183 16.7262C34.3021 16.8495 34.3724 17.0118 34.3811 17.1831L34.383 18.6167Z" fill="url(#paint0_linear_262_2)"/>
<defs>
<linearGradient id="paint0_linear_262_2" x1="22.9999" y1="3.8335" x2="22.9999" y2="42.1668" gradientUnits="userSpaceOnUse">
<stop stop-color="#F18C1F"/>
<stop offset="1" stop-color="#D26D00"/>
</linearGradient>
</defs>
</svg>
