<svg width="62" height="62" viewBox="0 0 62 62" fill="none" xmlns="http://www.w3.org/2000/svg">
<g clip-path="url(#clip0_73_253)">
<path d="M1.32318 30.629C1.32173 35.8382 2.69348 40.9246 5.30184 45.4078L1.07373 60.7257L16.8721 56.6154C21.2417 58.9757 26.1376 60.2125 31.1127 60.2128H31.1258C47.5498 60.2128 60.9192 46.9518 60.9263 30.6523C60.9294 22.754 57.8323 15.327 52.2053 9.73931C46.5793 4.1521 39.0969 1.07349 31.1246 1.06989C14.6987 1.06989 1.33021 14.3302 1.32343 30.629" fill="url(#paint0_linear_73_253)"/>
<path d="M0.259141 30.6193C0.257445 36.016 1.67836 41.2843 4.37972 45.9281L0 61.795L16.3649 57.5374C20.8739 59.9768 25.9506 61.263 31.1165 61.2649H31.1298C48.143 61.2649 61.9927 47.5268 62 30.6439C62.0029 22.4618 58.7944 14.7678 52.9664 8.97991C47.1377 3.19276 39.3877 0.00336434 31.1298 0C14.1137 0 0.265922 13.7361 0.259141 30.6193ZM10.005 45.1283L9.39397 44.1659C6.82533 40.1133 5.46956 35.4301 5.4715 30.6213C5.47683 16.5884 16.9865 5.17147 31.1395 5.17147C37.9934 5.17436 44.4346 7.82546 49.2793 12.6355C54.1238 17.446 56.7896 23.8407 56.7879 30.6419C56.7816 44.6748 45.2716 56.0932 31.1298 56.0932H31.1196C26.5149 56.0908 21.9989 54.8638 18.0604 52.545L17.1231 51.9935L7.41191 54.5199L10.005 45.1283Z" fill="url(#paint1_linear_73_253)"/>
<path d="M23.4142 17.8185C22.8364 16.5441 22.2282 16.5184 21.6787 16.4961C21.2287 16.4769 20.7143 16.4783 20.2004 16.4783C19.686 16.4783 18.8502 16.6703 18.1438 17.4357C17.4366 18.2018 15.4438 20.0531 15.4438 23.8186C15.4438 27.584 18.2079 31.2232 18.5933 31.7344C18.9791 32.2446 23.9294 40.219 31.7695 43.2868C38.2853 45.8363 39.6113 45.3292 41.0254 45.2014C42.4398 45.074 45.5892 43.3505 46.2317 41.5633C46.8747 39.7764 46.8747 38.2446 46.6819 37.9245C46.4891 37.6056 45.9747 37.4141 45.2034 37.0315C44.432 36.649 40.6396 34.7971 39.9326 34.5417C39.2254 34.2865 38.7113 34.1591 38.1969 34.9255C37.6825 35.6906 36.2054 37.4141 35.7551 37.9245C35.3054 38.4361 34.8552 38.4998 34.084 38.117C33.3122 37.733 30.8281 36.9258 27.8809 34.3187C25.5879 32.29 24.0398 29.7847 23.5898 29.0184C23.1398 28.2533 23.5416 27.8385 23.9284 27.4571C24.275 27.1142 24.7 26.5634 25.0861 26.1167C25.4707 25.6697 25.599 25.3508 25.8562 24.8404C26.1137 24.3295 25.9848 23.8825 25.7923 23.4997C25.599 23.1169 24.1001 19.3317 23.4142 17.8185Z" fill="white"/>
</g>
<defs>
<linearGradient id="paint0_linear_73_253" x1="2993.7" y1="5966.65" x2="2993.7" y2="1.06989" gradientUnits="userSpaceOnUse">
<stop stop-color="#1FAF38"/>
<stop offset="1" stop-color="#60D669"/>
</linearGradient>
<linearGradient id="paint1_linear_73_253" x1="3100" y1="6179.5" x2="3100" y2="0" gradientUnits="userSpaceOnUse">
<stop stop-color="#F9F9F9"/>
<stop offset="1" stop-color="white"/>
</linearGradient>
<clipPath id="clip0_73_253">
<rect width="62" height="62" fill="white"/>
</clipPath>
</defs>
</svg>
