<svg width="27" height="27" viewBox="0 0 27 27" fill="none" xmlns="http://www.w3.org/2000/svg">
<path d="M13.501 2.25C19.7144 2.25 24.751 7.28663 24.751 13.5C24.751 19.7134 19.7144 24.75 13.501 24.75C11.5128 24.7534 9.55965 24.2273 7.84224 23.2256L2.25549 24.75L3.77649 19.161C2.77407 17.443 2.24751 15.489 2.25099 13.5C2.25099 7.28663 7.28762 2.25 13.501 2.25ZM9.66699 8.2125L9.44199 8.2215C9.29652 8.23152 9.15438 8.26973 9.02349 8.334C8.90152 8.4032 8.79013 8.48958 8.69274 8.5905C8.55774 8.71763 8.48124 8.82788 8.39912 8.93475C7.98301 9.47577 7.75896 10.14 7.76237 10.8225C7.76462 11.3737 7.90862 11.9104 8.13362 12.4121C8.59374 13.4269 9.35087 14.5012 10.3499 15.4969C10.5906 15.7365 10.8269 15.9773 11.0811 16.2011C12.3225 17.294 13.8017 18.0821 15.4011 18.5029L16.0401 18.6007C16.2482 18.612 16.4564 18.5963 16.6656 18.5861C16.9932 18.5688 17.313 18.4802 17.6027 18.3263C17.7499 18.2501 17.8937 18.1676 18.0336 18.0787C18.0336 18.0787 18.0812 18.0465 18.1742 17.9775C18.3261 17.865 18.4195 17.7851 18.5455 17.6535C18.64 17.556 18.7187 17.4427 18.7817 17.3138C18.8695 17.1304 18.9572 16.7805 18.9932 16.4891C19.0202 16.2664 19.0124 16.1449 19.009 16.0695C19.0045 15.9491 18.9044 15.8243 18.7952 15.7714L18.1405 15.4778C18.1405 15.4778 17.1617 15.0514 16.5632 14.7791C16.5006 14.7519 16.4335 14.7362 16.3652 14.733C16.2883 14.7249 16.2105 14.7335 16.1371 14.7582C16.0637 14.7828 15.9965 14.823 15.94 14.8759C15.9344 14.8736 15.859 14.9377 15.0456 15.9233C14.9989 15.986 14.9346 16.0334 14.8609 16.0594C14.7872 16.0855 14.7073 16.089 14.6316 16.0695C14.5583 16.05 14.4865 16.0251 14.4167 15.9953C14.2772 15.9368 14.2289 15.9142 14.1332 15.8737C13.4874 15.5924 12.8895 15.2117 12.3614 14.7454C12.2196 14.6216 12.088 14.4866 11.953 14.3561C11.5104 13.9322 11.1247 13.4527 10.8055 12.9296L10.7391 12.8228C10.6922 12.7505 10.6537 12.6731 10.6244 12.5921C10.5816 12.4268 10.693 12.294 10.693 12.294C10.693 12.294 10.9664 11.9948 11.0935 11.8327C11.2172 11.6753 11.3219 11.5223 11.3894 11.4131C11.5221 11.1994 11.5637 10.98 11.494 10.8101C11.179 10.0406 10.8535 9.27525 10.5175 8.514C10.4511 8.36325 10.2542 8.25525 10.0754 8.23387C10.0146 8.22637 9.95387 8.22038 9.89312 8.21588C9.74206 8.20721 9.5906 8.20871 9.43974 8.22038L9.66699 8.2125Z" fill="url(#paint0_linear_91_273)"/>
<defs>
<linearGradient id="paint0_linear_91_273" x1="13.501" y1="2.25" x2="13.501" y2="24.75" gradientUnits="userSpaceOnUse">
<stop stop-color="#F18C1F"/>
<stop offset="1" stop-color="#D26D00"/>
</linearGradient>
</defs>
</svg>
